HIERARCHY
ROOT Hips
{
 OFFSET 0.000000 0.000000 0.000000
 CHANNELS 6 Xposition Yposition Zposition Yrotation Xrotation Zrotation
 JOINT Chest
 {
  OFFSET 0.000000 9.585900 0.002600
  CHANNELS 3 Yrotation Xrotation Zrotation
  JOINT Chest2
  {
   OFFSET 0.000000 9.601200 -0.005300
   CHANNELS 3 Yrotation Xrotation Zrotation
   JOINT Chest3
   {
    OFFSET 0.000000 9.561800 0.000000
    CHANNELS 3 Yrotation Xrotation Zrotation
    JOINT Chest4
    {
     OFFSET 0.000000 9.552100 0.000000
     CHANNELS 3 Yrotation Xrotation Zrotation
     JOINT Neck
     {
      OFFSET 0.000000 14.453000 0.000000
      CHANNELS 3 Yrotation Xrotation Zrotation
      JOINT Head
      {
       OFFSET 0.000000 8.936500 -0.011300
       CHANNELS 3 Yrotation Xrotation Zrotation
       End Site
       {
        OFFSET 0.000000 17.073600 -0.006000
       }
      }
     }
     JOINT RightCollar
     {
      OFFSET -2.921100 9.558500 0.000000
      CHANNELS 3 Yrotation Xrotation Zrotation
      JOINT RightShoulder
      {
       OFFSET -13.519700 0.000000 0.000000
       CHANNELS 3 Yrotation Xrotation Zrotation
       JOINT RightElbow
       {
        OFFSET 0.000000 -29.696600 0.000000
        CHANNELS 3 Yrotation Xrotation Zrotation
        JOINT RightWrist
        {
         OFFSET 0.000000 -24.004700 0.000000
         CHANNELS 3 Yrotation Xrotation Zrotation
         End Site
         {
          OFFSET 0.000000 -17.728500 0.000000
         }
        }
       }
      }
     }
     JOINT LeftCollar
     {
      OFFSET 2.921100 9.558500 0.000000
      CHANNELS 3 Yrotation Xrotation Zrotation
      JOINT LeftShoulder
      {
       OFFSET 13.519700 0.000000 0.000000
       CHANNELS 3 Yrotation Xrotation Zrotation
       JOINT LeftElbow
       {
        OFFSET 0.000000 -29.696600 0.000000
        CHANNELS 3 Yrotation Xrotation Zrotation
        JOINT LeftWrist
        {
         OFFSET 0.000000 -24.004700 0.000000
         CHANNELS 3 Yrotation Xrotation Zrotation
         End Site
         {
          OFFSET 0.000000 -17.728500 0.000000
         }
        }
       }
      }
     }
    }
   }
  }
 }
 JOINT RightHip
 {
  OFFSET -7.771700 -0.012900 -0.001300
  CHANNELS 3 Yrotation Xrotation Zrotation
  JOINT RightKnee
  {
   OFFSET 0.000000 -40.869800 0.001200
   CHANNELS 3 Yrotation Xrotation Zrotation
   JOINT RightAnkle
   {
    OFFSET 0.000000 -39.717900 0.002100
    CHANNELS 3 Yrotation Xrotation Zrotation
    JOINT RightToe
    {
     OFFSET 0.000000 -4.965400 11.033500
     CHANNELS 3 Yrotation Xrotation Zrotation
     End Site
     {
      OFFSET 0.000000 -1.423100 5.872300
     }
    }
   }
  }
 }
 JOINT LeftHip
 {
  OFFSET 7.771700 -0.012900 -0.001300
  CHANNELS 3 Yrotation Xrotation Zrotation
  JOINT LeftKnee
  {
   OFFSET 0.000000 -40.869800 0.001200
   CHANNELS 3 Yrotation Xrotation Zrotation
   JOINT LeftAnkle
   {
    OFFSET 0.000000 -39.717900 0.002100
    CHANNELS 3 Yrotation Xrotation Zrotation
    JOINT LeftToe
    {
     OFFSET 0.000000 -4.965400 11.033500
     CHANNELS 3 Yrotation Xrotation Zrotation
     End Site
     {
      OFFSET 0.000000 -1.423100 5.872300
     }
    }
   }
  }
 }
}
MOTION
Frames: 11
Frame Time: 0.008333
-38.504266 62.009210 13.152255 177.660216 -51.943941 -0.616703 3.328410 27.508939 0.847225 0.486499 4.800889 0.152493 0.790168 7.594750 0.246630 2.482765 22.247287 1.092007 1.664777 15.349868 2.257534 2.278794 -7.300359 3.603491 6.140519 5.684737 4.425429 -1.918582 -10.509069 -13.255187 -148.100884 -63.147587 175.154140 24.808841 3.939503 -0.434455 -10.879815 3.349324 -1.352620 -5.368146 -9.747897 19.092192 -172.681179 -68.621683 160.463836 -5.241503 -10.549588 1.038102 3.237369 -14.911087 -6.581177 -1.541175 60.985021 -5.502821 1.465962 -6.414807 10.577335 0.228979 -0.536490 0.098260 -3.687379 -12.333492 1.528674 25.186009 76.679045 25.573828 0.554233 -11.669707 -3.421712 0.247550 0.638838 0.113648
-38.505079 62.009967 13.151315 177.660961 -51.938565 -0.618678 3.330172 27.504217 0.847592 0.491934 4.803716 0.147508 0.789196 7.593958 0.250194 2.490340 22.249716 1.089086 1.661050 15.350042 2.228931 2.270728 -7.304582 3.606630 6.138235 5.674195 4.427740 -1.926312 -10.501423 -13.248248 -148.094768 -63.146327 175.158734 24.804564 3.942773 -0.431597 -10.889249 3.342762 -1.340201 -5.372404 -9.744930 19.076040 -172.692553 -68.637375 160.460008 -5.250285 -10.556748 1.044402 3.233017 -14.915574 -6.576640 -1.546003 60.984907 -5.512462 1.462481 -6.414734 10.577847 0.233751 -0.535729 0.100106 -3.687360 -12.337733 1.531955 25.171873 76.678129 25.561524 0.547423 -11.667103 -3.424646 0.256906 0.636361 0.116685
-38.506214 62.011035 13.150066 177.660606 -51.935639 -0.618439 3.332436 27.503853 0.847084 0.495935 4.806088 0.146202 0.787608 7.591605 0.251529 2.494718 22.249032 1.085499 1.657514 15.348274 2.219462 2.269724 -7.305273 3.587240 6.134989 5.670088 4.433444 -1.928142 -10.491671 -13.245776 -148.092752 -63.143413 175.164170 24.803821 3.943245 -0.433430 -10.894507 3.338625 -1.329726 -5.371716 -9.742198 19.067249 -172.716839 -68.646964 160.470700 -5.252525 -10.557820 1.050093 3.232510 -14.917932 -6.577652 -1.552641 60.987206 -5.517686 1.466578 -6.417384 10.574387 0.235742 -0.535802 0.103274 -3.686109 -12.339392 1.533997 25.151536 76.678725 25.543470 0.538202 -11.664791 -3.426458 0.261197 0.633183 0.118883
-38.507653 62.012320 13.148584 177.659955 -51.934602 -0.617363 3.335188 27.505195 0.847307 0.497372 4.806301 0.146187 0.788604 7.591833 0.251432 2.494685 22.248722 1.083215 1.656344 15.345231 2.211513 2.268259 -7.307538 3.558651 6.142510 5.662516 4.426773 -1.935204 -10.482428 -13.226939 -148.099740 -63.147733 175.168798 24.808396 3.940257 -0.433883 -10.898913 3.334270 -1.321366 -5.369328 -9.740273 19.061479 -172.754524 -68.659543 160.503709 -5.234548 -10.559056 1.045193 3.232590 -14.917359 -6.578081 -1.549694 60.988786 -5.517260 1.465786 -6.421416 10.574898 0.236692 -0.535142 0.104786 -3.684892 -12.339011 1.534455 25.125247 76.680365 25.518913 0.534302 -11.662421 -3.426814 0.267111 0.630131 0.120241
-38.508927 62.013603 13.147054 177.654848 -51.934059 -0.615712 3.342847 27.506494 0.850681 0.498082 4.806338 0.147225 0.789477 7.591814 0.251475 2.497671 22.250230 1.083141 1.651290 15.341165 2.210511 2.270764 -7.316307 3.520727 6.150939 5.654252 4.418233 -1.950285 -10.475325 -13.206907 -148.098114 -63.152101 175.163726 24.811471 3.940035 -0.427852 -10.906633 3.330206 -1.315670 -5.364782 -9.742039 19.050589 -172.804929 -68.675323 160.545686 -5.236367 -10.563801 1.047221 3.235721 -14.914949 -6.578177 -1.543575 60.986578 -5.510913 1.470211 -6.426053 10.576502 0.231236 -0.532463 0.103675 -3.681166 -12.337758 1.536965 25.103588 76.682362 25.498119 0.536822 -11.661223 -3.425544 0.266756 0.627826 0.119939
-38.510876 62.014699 13.145581 177.647761 -51.932766 -0.610923 3.352680 27.508330 0.854574 0.494875 4.803761 0.146688 0.789780 7.591740 0.251484 2.506247 22.251507 1.083609 1.646654 15.335895 2.197350 2.268585 -7.338541 3.454779 6.153429 5.645415 4.407439 -1.963788 -10.468012 -13.186649 -148.079570 -63.157463 175.146265 24.811687 3.936877 -0.434264 -10.918111 3.328040 -1.309951 -5.357767 -9.742567 19.040544 -172.801397 -68.676326 160.537026 -5.182984 -10.556160 1.037982 3.241714 -14.913435 -6.582331 -1.536816 60.984644 -5.499103 1.467889 -6.430136 10.577229 0.225025 -0.529328 0.100616 -3.675267 -12.337206 1.537268 25.092917 76.683943 25.486813 0.541037 -11.662301 -3.422576 0.263295 0.628157 0.119038
-38.513008 62.015522 13.144253 177.643390 -51.930336 -0.609773 3.361137 27.509727 0.855813 0.495607 4.804054 0.146293 0.790894 7.591995 0.250914 2.509347 22.251691 1.082403 1.644300 15.329484 2.185228 2.264246 -7.352114 3.434682 6.176953 5.630993 4.397670 -1.995683 -10.461057 -13.164156 -148.045883 -63.161056 175.118794 24.805002 3.939553 -0.428679 -10.923058 3.321863 -1.300027 -5.338030 -9.743994 19.029748 -172.850104 -68.686167 160.560724 -5.190174 -10.558395 1.037036 3.245579 -14.914046 -6.583532 -1.533542 60.983351 -5.492945 1.468427 -6.430333 10.576691 0.221462 -0.529829 0.100396 -3.672124 -12.337503 1.538909 25.089243 76.684337 25.482034 0.544468 -11.665658 -3.420691 0.260250 0.631594 0.118671
-38.514469 62.016625 13.142687 177.636241 -51.931229 -0.612669 3.370345 27.512090 0.861339 0.497710 4.808338 0.144012 0.793442 7.596520 0.249728 2.510511 22.248156 1.087200 1.640313 15.321491 2.171258 2.266933 -7.366471 3.410653 6.189052 5.619806 4.393187 -2.002580 -10.461094 -13.154423 -148.022693 -63.166530 175.093950 24.804798 3.941929 -0.418101 -10.925884 3.312307 -1.295531 -5.322750 -9.743679 19.025529 -172.945313 -68.710644 160.641629 -5.215023 -10.568712 1.028098 3.251071 -14.911970 -6.578961 -1.538755 60.981575 -5.492247 1.476338 -6.425992 10.577775 0.217175 -0.533938 0.097998 -3.669504 -12.334297 1.547203 25.091447 76.686158 25.483962 0.544522 -11.668558 -3.420942 0.259267 0.633637 0.118257
-38.516967 62.017561 13.141148 177.632097 -51.932382 -0.613447 3.378497 27.519111 0.861190 0.495794 4.803055 0.149549 0.795661 7.601236 0.246910 2.512864 22.250154 1.085901 1.637782 15.313564 2.159259 2.271191 -7.381713 3.386391 6.196878 5.609442 4.392025 -2.009070 -10.460057 -13.144108 -147.998650 -63.173670 175.072100 24.808542 3.940726 -0.413366 -10.929531 3.305528 -1.284407 -5.314217 -9.745158 19.019709 -172.959616 -68.713353 160.647966 -5.197319 -10.563485 1.026424 3.256936 -14.910071 -6.577661 -1.530698 60.983079 -5.483835 1.477991 -6.423593 10.582544 0.214104 -0.538115 0.096091 -3.667884 -12.332263 1.551083 25.096440 76.688624 25.488013 0.541150 -11.669276 -3.420533 0.260481 0.631725 0.119006
-38.520003 62.018215 13.139792 177.626877 -51.932867 -0.611118 3.382936 27.521909 0.860994 0.498429 4.804851 0.148167 0.794189 7.603128 0.247412 2.521691 22.256619 1.082984 1.635890 15.299463 2.149378 2.272094 -7.397319 3.362775 6.201478 5.594713 4.394227 -2.009733 -10.460630 -13.138326 -147.974748 -63.180993 175.042369 24.812972 3.939705 -0.405721 -10.936939 3.293598 -1.273545 -5.306672 -9.745600 19.017319 -172.989281 -68.728975 160.668676 -5.191656 -10.563566 1.014503 3.261798 -14.909082 -6.578884 -1.524699 60.983438 -5.477406 1.479977 -6.420319 10.584291 0.211831 -0.540982 0.096169 -3.665960 -12.329679 1.550879 25.109416 76.686899 25.498079 0.543056 -11.671461 -3.417370 0.256485 0.634252 0.116693
-38.522719 62.018243 13.138977 177.627710 -51.929808 -0.615632 3.382580 27.522703 0.861067 0.498080 4.810660 0.144868 0.796829 7.596402 0.251980 2.523168 22.255516 1.083826 1.635922 15.296981 2.132533 2.275740 -7.413285 3.336300 6.215368 5.590720 4.390211 -2.021710 -10.459031 -13.130296 -147.972712 -63.181884 175.037882 24.807758 3.941737 -0.388717 -10.936781 3.300670 -1.265340 -5.294450 -9.757007 19.005674 -173.039084 -68.752532 160.704731 -5.199428 -10.565150 1.010464 3.261558 -14.911309 -6.577608 -1.521350 60.982883 -5.473449 1.482235 -6.419488 10.584121 0.215861 -0.539099 0.097122 -3.663002 -12.333712 1.555365 25.111860 76.688369 25.501908 0.539117 -11.668625 -3.415597 0.258281 0.632096 0.117097
